<mxfile host="app.diagrams.net" modified="2024-06-30T11:19:49.909Z" agent="Mozilla/5.0 (X11; Linux x86_64) AppleWebKit/537.36 (KHTML, like Gecko) Chrome/126.0.0.0 Safari/537.36 Edg/126.0.0.0" version="24.6.4" etag="Myg4RWfjxK6vNs5A9pld" type="github">
  <diagram name="第 1 页" id="Q6rg1TOT14fd7PcvcL6D">
    <mxGraphModel>
      <root>
        <mxCell id="0" />
        <mxCell id="1" parent="0" />
      </root>
    </mxGraphModel>
  </diagram>
</mxfile>
